<svg width="24" height="24" viewBox="0 0 24 24" fill="none" xmlns="http://www.w3.org/2000/svg">
<path fill-rule="evenodd" clip-rule="evenodd" d="M12.0371 8.71265C12.4513 8.71265 12.7871 9.04843 12.7871 9.46265V16.611C12.7871 17.0253 12.4513 17.361 12.0371 17.361C11.6229 17.361 11.2871 17.0253 11.2871 16.611V9.46265C11.2871 9.04843 11.6229 8.71265 12.0371 8.71265Z" fill="black"/>
<path fill-rule="evenodd" clip-rule="evenodd" d="M7.70898 13.0368C7.70898 12.6226 8.04477 12.2868 8.45898 12.2868H15.6148C16.029 12.2868 16.3648 12.6226 16.3648 13.0368C16.3648 13.451 16.029 13.7868 15.6148 13.7868H8.45898C8.04477 13.7868 7.70898 13.451 7.70898 13.0368Z" fill="black"/>
<path fill-rule="evenodd" clip-rule="evenodd" d="M4.96075 5.96045C3.66171 7.25949 3.05029 9.42738 3.05029 13.0368C3.05029 16.6463 3.66171 18.8142 4.96075 20.1132C6.2598 21.4123 8.42768 22.0237 12.0371 22.0237C15.6465 22.0237 17.8144 21.4123 19.1135 20.1132C20.4125 18.8142 21.0239 16.6463 21.0239 13.0368C21.0239 9.42738 20.4125 7.25949 19.1135 5.96045C17.8144 4.6614 15.6465 4.04999 12.0371 4.04999C8.42768 4.04999 6.2598 4.6614 4.96075 5.96045ZM3.90009 4.89979C5.64394 3.15594 8.34448 2.54999 12.0371 2.54999C15.7297 2.54999 18.4303 3.15594 20.1741 4.89979C21.918 6.64364 22.5239 9.34418 22.5239 13.0368C22.5239 16.7295 21.918 19.43 20.1741 21.1739C18.4303 22.9177 15.7297 23.5237 12.0371 23.5237C8.34448 23.5237 5.64394 22.9177 3.90009 21.1739C2.15624 19.43 1.55029 16.7295 1.55029 13.0368C1.55029 9.34418 2.15624 6.64364 3.90009 4.89979Z" fill="black"/>
</svg>
